<?xml version="1.0" encoding="UTF-8" standalone="no"?>
<svg>
  <g>
    <path
       style="opacity:1;fill:#ffffff;fill-opacity:1;stroke:none;stroke-width:0.5;stroke-linejoin:round;stroke-miterlimit:4;stroke-dasharray:none;stroke-dashoffset:0;stroke-opacity:1"
       d="M 8.0878906 2 A 6 6 0 0 0 3.7578125 3.7578125 A 6 6 0 0 0 3.7578125 12.242188 L 3.171875 12.828125 L 6 12.828125 L 6 10 L 5.28125 10.71875 A 3.84375 3.84375 0 0 1 5.28125 5.28125 A 3.84375 3.84375 0 0 1 9.8222656 4.6171875 L 9.8222656 3.171875 A 0.17817269 0.17817269 0 0 1 9.9824219 2.9941406 A 0.17817269 0.17817269 0 0 1 10 2.9941406 L 11.304688 2.9941406 A 6 6 0 0 0 8.0878906 2 z "
       transform="translate(0,1036.3622)"
       id="path8586" />
  </g>
</svg>
